<?xml version="1.0" encoding="UTF-8"?>
<svg xmlns="http://www.w3.org/2000/svg" xmlns:xlink="http://www.w3.org/1999/xlink" width="512px" height="512px" viewBox="0 0 256 256" version="1.1">
<defs>
<filter id="alpha" filterUnits="objectBoundingBox" x="0%" y="0%" width="100%" height="100%">
  <feColorMatrix type="matrix" in="SourceGraphic" values="0 0 0 0 1 0 0 0 0 1 0 0 0 0 1 0 0 0 1 0"/>
</filter>
<mask id="mask0">
  <g filter="url(#alpha)">
<rect x="0" y="0" width="256" height="256" style="fill:rgb(0%,0%,0%);fill-opacity:0.992157;stroke:none;"/>
  </g>
</mask>
<clipPath id="clip1">
  <rect x="0" y="0" width="256" height="256"/>
</clipPath>
<g id="surface5" clip-path="url(#clip1)">
<path style=" stroke:none;fill-rule:evenodd;fill:rgb(100%,100%,100%);fill-opacity:1;" d="M 20.75 -0.25 C 92.082031 -0.25 163.417969 -0.25 234.75 -0.25 C 245.695312 2.527344 252.695312 9.359375 255.75 20.25 C 255.75 91.75 255.75 163.25 255.75 234.75 C 252.917969 245.917969 245.917969 252.917969 234.75 255.75 C 163.417969 255.75 92.082031 255.75 20.75 255.75 C 9.582031 252.917969 2.582031 245.917969 -0.25 234.75 C -0.25 163.417969 -0.25 92.082031 -0.25 20.75 C 2.582031 9.582031 9.582031 2.582031 20.75 -0.25 Z M 35.75 25.25 C 43.082031 25.25 50.417969 25.25 57.75 25.25 C 57.75 32.417969 57.75 39.582031 57.75 46.75 C 50.417969 46.75 43.082031 46.75 35.75 46.75 C 35.75 39.582031 35.75 32.417969 35.75 25.25 Z M 76.25 25.25 C 83.582031 25.25 90.917969 25.25 98.25 25.25 C 98.25 32.417969 98.25 39.582031 98.25 46.75 C 90.917969 46.75 83.582031 46.75 76.25 46.75 C 76.25 39.582031 76.25 32.417969 76.25 25.25 Z M 116.75 25.25 C 124.082031 25.25 131.417969 25.25 138.75 25.25 C 138.75 32.417969 138.75 39.582031 138.75 46.75 C 131.417969 46.75 124.082031 46.75 116.75 46.75 C 116.75 39.582031 116.75 32.417969 116.75 25.25 Z M 157.25 25.25 C 164.582031 25.25 171.917969 25.25 179.25 25.25 C 179.25 32.417969 179.25 39.582031 179.25 46.75 C 171.917969 46.75 164.582031 46.75 157.25 46.75 C 157.25 39.582031 157.25 32.417969 157.25 25.25 Z M 197.75 25.25 C 205.082031 25.25 212.417969 25.25 219.75 25.25 C 219.75 32.417969 219.75 39.582031 219.75 46.75 C 212.417969 46.75 205.082031 46.75 197.75 46.75 C 197.75 39.582031 197.75 32.417969 197.75 25.25 Z M 92.75 71.75 C 95.222656 71.480469 97.558594 71.894531 99.75 73 C 127.621094 89.367188 155.621094 105.53125 183.75 121.5 C 188.992188 125.710938 188.992188 129.875 183.75 134 C 156.082031 150 128.417969 166 100.75 182 C 97.46875 184.496094 94.136719 184.664062 90.75 182.5 C 89.785156 181.371094 89.035156 180.121094 88.5 178.75 C 88.167969 144.75 88.167969 110.75 88.5 76.75 C 89.34375 74.542969 90.761719 72.875 92.75 71.75 Z M 35.75 208.75 C 43.082031 208.75 50.417969 208.75 57.75 208.75 C 57.75 216.082031 57.75 223.417969 57.75 230.75 C 50.417969 230.75 43.082031 230.75 35.75 230.75 C 35.75 223.417969 35.75 216.082031 35.75 208.75 Z M 76.25 208.75 C 83.582031 208.75 90.917969 208.75 98.25 208.75 C 98.25 216.082031 98.25 223.417969 98.25 230.75 C 90.917969 230.75 83.582031 230.75 76.25 230.75 C 76.25 223.417969 76.25 216.082031 76.25 208.75 Z M 116.75 208.75 C 124.082031 208.75 131.417969 208.75 138.75 208.75 C 138.75 216.082031 138.75 223.417969 138.75 230.75 C 131.417969 230.75 124.082031 230.75 116.75 230.75 C 116.75 223.417969 116.75 216.082031 116.75 208.75 Z M 157.25 208.75 C 164.582031 208.75 171.917969 208.75 179.25 208.75 C 179.25 216.082031 179.25 223.417969 179.25 230.75 C 171.917969 230.75 164.582031 230.75 157.25 230.75 C 157.25 223.417969 157.25 216.082031 157.25 208.75 Z M 197.75 208.75 C 205.082031 208.75 212.417969 208.75 219.75 208.75 C 219.75 216.082031 219.75 223.417969 219.75 230.75 C 212.417969 230.75 205.082031 230.75 197.75 230.75 C 197.75 223.417969 197.75 216.082031 197.75 208.75 Z M 197.75 208.75 "/>
</g>
</defs>
<g id="surface1">
<use xlink:href="#surface5" mask="url(#mask0)"/>
</g>
</svg>
