<svg xmlns="http://www.w3.org/2000/svg" version="1.0" width="800.000000pt" height="800.000000pt" viewBox="0 0 800.000000 800.000000" preserveAspectRatio="xMidYMid meet">

<g transform="translate(0.000000,800.000000) scale(0.100000,-0.100000)" fill="#ffffff" stroke="none">
<path d="M4057 7975 c-10 -14 -22 -25 -28 -25 -13 0 -193 -102 -197 -112 -2 -4 -11 -8 -20 -8 -9 0 -35 -11 -57 -25 -22 -13 -45 -25 -52 -25 -7 0 -31 -13 -55 -29 -24 -16 -85 -51 -136 -77 l-94 -47 7 -34 c5 -30 43 -95 112 -193 10 -14 26 -41 36 -60 23 -47 54 -96 94 -149 22 -29 33 -55 33 -77 0 -35 -21 -64 -47 -64 -8 0 -27 -8 -41 -19 -15 -10 -38 -22 -51 -26 -12 -4 -39 -18 -58 -31 -19 -13 -53 -31 -74 -41 -62 -27 -65 -78 -8 -157 61 -85 99 -149 99 -167 0 -10 7 -22 15 -26 17 -10 96 -129 120 -179 7 -17 21 -36 29 -44 9 -7 16 -18 16 -24 0 -6 30 -56 66 -111 37 -55 70 -110 75 -123 5 -12 17 -35 28 -50 45 -65 151 -232 151 -239 0 -4 11 -23 23 -42 13 -20 46 -70 72 -111 27 -41 59 -91 72 -111 13 -19 23 -38 23 -42 0 -6 67 -112 106 -166 9 -13 30 -49 47 -80 16 -31 42 -74 57 -96 56 -81 100 -152 100 -161 0 -5 13 -25 28 -44 16 -19 31 -42 34 -50 3 -9 32 -56 64 -105 58 -89 69 -107 111 -182 38 -69 83 -123 100 -123 24 0 104 30 123 46 20 17 130 77 196 108 28 13 55 29 58 35 4 6 18 11 31 11 13 0 26 4 29 9 5 7 127 77 227 131 8 4 58 30 110 58 134 71 307 163 404 217 28 16 64 34 80 42 17 8 41 21 55 29 14 8 41 22 60 31 76 33 86 61 45 128 -13 22 -36 60 -50 85 -34 60 -43 74 -92 145 -23 34 -56 87 -72 118 -16 31 -37 67 -46 79 -46 66 -104 159 -109 176 -4 11 -15 27 -26 37 -11 10 -20 24 -20 30 0 7 -28 55 -63 106 -34 52 -68 105 -75 119 -27 52 -69 119 -120 195 -29 43 -59 92 -66 109 -7 17 -20 37 -29 45 -10 7 -17 19 -17 25 0 6 -20 40 -45 75 -25 36 -45 70 -45 77 0 8 -8 18 -19 23 -10 6 -22 22 -25 36 -4 14 -19 44 -35 67 -55 81 -101 155 -101 162 0 3 -13 25 -30 48 -16 22 -30 46 -30 51 0 6 -9 20 -19 31 -24 26 -75 108 -101 163 -12 24 -30 47 -40 53 -11 6 -20 19 -20 29 0 10 -18 43 -40 75 -22 31 -40 61 -40 66 0 5 -11 19 -24 32 -13 13 -26 32 -28 42 -1 10 -11 24 -21 30 -14 9 -20 7 -28 -6 -6 -10 -20 -18 -31 -18 -12 0 -29 -6 -37 -14 -9 -7 -47 -30 -84 -50 -38 -20 -78 -43 -90 -51 -12 -7 -39 -17 -60 -20 -36 -7 -40 -5 -75 35 -20 24 -46 59 -57 79 -11 20 -30 50 -43 65 -12 16 -22 34 -22 42 0 7 -11 26 -25 42 -14 17 -25 35 -25 41 0 6 -18 34 -40 63 -22 29 -43 68 -46 86 -6 30 -9 32 -48 32 -32 -1 -45 -6 -59 -25z" fill="#ffffff"/>
<path d="M2640 6299 c-19 -11 -48 -19 -63 -19 -15 0 -44 -8 -65 -19 -20 -10 -54 -21 -76 -25 -21 -4 -55 -16 -75 -27 -20 -10 -45 -19 -57 -19 -12 0 -27 -7 -34 -15 -7 -8 -28 -17 -49 -21 -39 -7 -231 -98 -346 -163 -38 -22 -88 -48 -110 -59 -22 -11 -57 -33 -79 -51 -21 -17 -45 -31 -52 -31 -7 0 -46 -26 -86 -58 -40 -32 -98 -74 -130 -93 -31 -19 -121 -95 -200 -170 -78 -74 -165 -155 -192 -179 -26 -25 -68 -72 -91 -105 -24 -33 -58 -73 -75 -90 -18 -16 -51 -59 -75 -95 -24 -36 -67 -96 -94 -135 -27 -38 -57 -83 -65 -100 -9 -16 -29 -52 -45 -80 -16 -27 -43 -79 -60 -115 -18 -36 -36 -72 -41 -80 -25 -40 -80 -153 -80 -164 0 -7 -11 -34 -25 -60 -14 -26 -25 -55 -25 -66 0 -10 -11 -42 -25 -72 -14 -29 -25 -64 -25 -78 0 -14 -8 -41 -19 -60 -10 -19 -21 -62 -24 -95 -3 -33 -15 -78 -26 -100 -17 -31 -21 -58 -21 -133 0 -92 0 -93 -32 -123 l-33 -30 0 -330 0 -331 30 -24 c29 -23 30 -26 35 -136 5 -90 11 -121 28 -153 14 -25 22 -57 22 -87 0 -28 8 -60 19 -80 10 -18 22 -55 26 -83 4 -27 15 -64 26 -81 10 -17 19 -40 19 -51 0 -10 9 -36 20 -58 11 -22 20 -44 20 -50 0 -5 11 -30 24 -55 13 -25 27 -59 30 -76 4 -18 16 -40 27 -50 10 -9 19 -23 19 -30 0 -11 52 -118 83 -169 37 -62 109 -174 127 -197 11 -14 20 -30 20 -36 0 -5 17 -29 39 -53 21 -24 52 -65 68 -91 47 -74 362 -406 454 -479 29 -23 32 -29 20 -43 -12 -14 -71 -16 -577 -16 -547 0 -564 -1 -574 -19 -6 -13 -10 -159 -10 -405 l0 -386 3448 0 3447 0 -3 387 c-3 324 -6 390 -18 403 -13 13 -91 15 -556 18 -346 2 -546 6 -554 13 -6 5 -10 18 -7 28 2 9 85 93 184 185 99 93 197 194 218 225 21 31 49 65 61 76 12 11 42 49 66 85 77 112 88 129 127 182 20 28 37 57 37 63 0 7 10 25 22 40 12 16 39 60 60 99 39 74 45 86 86 176 14 30 33 73 43 95 11 22 19 47 19 55 0 8 12 38 25 65 14 28 25 61 25 75 0 14 9 39 20 55 11 17 20 39 20 51 0 11 8 28 18 37 17 15 63 17 463 17 386 0 447 2 467 16 l22 15 0 364 0 364 -22 15 c-20 14 -196 16 -1680 16 -1645 0 -1658 0 -1678 -20 -19 -19 -20 -33 -20 -379 l0 -360 22 -15 c20 -14 87 -16 529 -16 413 0 509 -2 518 -14 13 -16 -2 -69 -28 -101 -10 -11 -23 -33 -30 -50 -18 -44 -79 -135 -116 -175 -18 -19 -50 -60 -71 -90 -57 -83 -344 -351 -401 -375 -19 -8 -57 -33 -83 -55 -26 -22 -53 -40 -60 -40 -6 0 -37 -15 -68 -33 -99 -58 -278 -137 -310 -137 -10 0 -27 -9 -37 -20 -13 -14 -31 -20 -59 -20 -23 0 -57 -8 -76 -19 -19 -10 -64 -21 -100 -24 -36 -3 -81 -13 -100 -24 -32 -17 -65 -18 -410 -18 -367 0 -376 0 -427 23 -28 12 -70 22 -91 22 -22 0 -59 9 -83 20 -24 11 -58 20 -74 20 -17 0 -40 7 -51 15 -12 8 -43 19 -70 25 -27 6 -55 17 -64 24 -8 7 -36 20 -62 30 -26 10 -50 22 -53 27 -4 5 -17 9 -29 9 -13 0 -29 7 -36 15 -7 8 -35 27 -63 40 -63 32 -158 91 -208 130 -97 76 -237 196 -263 226 -16 19 -69 76 -118 127 -48 51 -88 99 -88 107 0 7 -6 20 -14 28 -27 27 -126 178 -126 192 0 8 -4 16 -9 19 -15 10 -81 150 -81 172 0 12 -8 32 -19 45 -10 13 -21 42 -25 64 -4 22 -16 56 -26 75 -10 19 -21 60 -23 91 -3 31 -14 72 -24 90 -16 31 -18 63 -18 364 0 320 1 332 23 382 12 28 22 71 22 95 0 24 8 56 19 74 10 17 22 46 25 65 7 33 37 103 77 180 10 20 19 43 19 50 0 8 25 52 55 99 30 47 64 103 76 125 12 22 39 60 61 85 21 25 55 68 76 96 48 66 301 302 354 331 23 13 55 34 72 46 43 33 212 137 223 137 4 0 43 18 86 40 42 22 84 40 93 40 8 0 27 9 42 19 15 11 45 22 67 26 22 3 50 13 62 21 12 7 41 16 65 20 24 3 64 14 90 25 26 11 70 19 101 19 48 0 166 37 190 59 15 14 -57 146 -132 243 -12 14 -21 33 -21 41 0 7 -9 25 -21 38 -11 13 -28 38 -36 54 -9 17 -29 46 -44 66 -16 20 -29 40 -29 45 0 4 -10 24 -23 43 -126 194 -149 230 -202 321 -16 28 -45 71 -63 96 -18 24 -38 58 -44 74 -12 36 -43 38 -98 9z" fill="#ffffff"/>
</g>
</svg>