<svg version="1.2" xmlns="http://www.w3.org/2000/svg" viewBox="0 0 236 236" width="236" height="236">
	<title>technicalWritingIcon-svg</title>
	<style>
		.s0 { fill: #ffffff } 
	</style>
	<g>
		<g>
			<g>
				<path fill-rule="evenodd" class="s0" d="m236 33.7v168.6c0 18.6-15.1 33.7-33.7 33.7h-168.6c-18.6 0-33.7-15.1-33.7-33.7v-168.6c0-18.6 15.1-33.7 33.7-33.7h168.6c18.6 0 33.7 15.1 33.7 33.7zm-197.2 18.5c0 5.6 4.5 10.1 10.1 10.1h67.7c5.6 0 10.1-4.5 10.1-10.1 0-5.6-4.5-10.1-10.1-10.1h-67.7c-5.6 0-10.1 4.6-10.1 10.1zm0 43.9c0 5.6 4.5 10.1 10.1 10.1h67.4c5.6 0 10.1-4.5 10.1-10.1 0-5.6-4.5-10.1-10.1-10.1h-67.4c-5.6 0-10.1 4.5-10.1 10.1zm158.4 87.7c0-5.6-4.5-10.1-10.1-10.1h-138.2c-5.6 0-10.1 4.5-10.1 10.1 0 5.6 4.5 10.1 10.1 10.1h138.2c5.6 0 10.1-4.6 10.1-10.1zm0-43.9c0-5.6-4.5-10.1-10.1-10.1h-138.2c-5.6 0-10.1 4.5-10.1 10.1 0 5.6 4.5 10.1 10.1 10.1h138.2c5.6 0 10.1-4.5 10.1-10.1z"/>
			</g>
			<g>
			</g>
			<g>
			</g>
			<g>
			</g>
			<g>
			</g>
			<g>
			</g>
			<g>
			</g>
			<g>
			</g>
			<g>
			</g>
			<g>
			</g>
			<g>
			</g>
			<g>
			</g>
			<g>
			</g>
			<g>
			</g>
			<g>
			</g>
			<g>
			</g>
		</g>
	</g>
</svg>