<?xml version="1.0" encoding="iso-8859-1"?>
<!-- Uploaded to: SVG Repo, www.svgrepo.com, Generator: SVG Repo Mixer Tools -->
<!DOCTYPE svg PUBLIC "-//W3C//DTD SVG 1.1//EN" "http://www.w3.org/Graphics/SVG/1.1/DTD/svg11.dtd">
<svg fill="#000000" version="1.1" id="Capa_1" xmlns="http://www.w3.org/2000/svg" xmlns:xlink="http://www.w3.org/1999/xlink" 
	 width="800px" height="800px" viewBox="0 0 97.752 97.752"
	 xml:space="preserve">
<g>
	<g>
		<path d="M27.251,58.126c4.926-0.242,9.883-0.268,14.704-1.49c0.017-0.072,0.032-0.146,0.049-0.22
			c-0.961-0.79-1.911-1.592-2.885-2.366c-3.271-2.6-6.161-5.55-8.37-9.124c-1.947-3.149-3.24-6.503-3.197-10.27
			c0.051-4.342,1.742-8.002,4.707-11.106c2.882-3.016,6.462-4.56,10.586-4.942c3.087-0.287,6.118-0.098,9.008,1.108
			c4.073,1.703,6.854,4.783,9.01,8.539c2.754,4.797,2.404,9.636,0.184,14.457c-2.803,6.087-7.423,10.496-13.131,13.855
			c-0.234,0.14-0.469,0.283-0.472,0.263c0.567,0.696,1.122,1.403,1.717,2.078c0.095,0.108,0.388,0.13,0.553,0.077
			c3.054-1.006,6.208-1.517,9.396-1.782c2.053-0.173,4.121-0.206,6.184-0.198c4.637,0.02,21.949,0.438,31.652,0.678
			c0.521-2.856,0.807-5.798,0.807-8.807C97.75,21.884,75.868,0.001,48.875,0.001S0,21.884,0,48.876c0,2.646,0.218,5.243,0.623,7.775
			C8.209,57.272,23.099,58.33,27.251,58.126z"/>
		<path d="M48.312,62.603c-3.041,1.953-5.233,4.58-6.018,8.166c-0.572,2.621,0.585,4.713,2.93,5.506
			c0.841,0.283,1.761,0.334,2.486,0.461c0.988-0.115,1.812-0.133,2.59-0.327c0.822-0.204,1.664-0.472,2.39-0.897
			c2.146-1.257,2.637-3.412,1.463-6.072c-1.172-2.664-3.105-4.758-5.13-6.773C48.889,62.53,48.476,62.497,48.312,62.603z"/>
		<path d="M69.588,59.49c-3.38-0.089-6.77,0.021-10.148,0.157c-2.617,0.104-5.213,0.463-7.711,1.322
			c-0.123,0.042-0.242,0.102-0.467,0.196c0.266,0.287,0.479,0.517,0.688,0.751c2.146,2.378,3.934,4.965,4.901,8.066
			c1.144,3.67-0.313,6.215-3.278,7.99c-5.339,3.196-12.341,0.147-13.685-5.932c-0.677-3.064,0.327-5.698,2.354-7.938
			c1.08-1.191,2.386-2.182,3.594-3.258c0.186-0.166,0.395-0.303,0.678-0.518c-0.748-0.648-1.428-1.268-2.148-1.836
			c-0.133-0.106-0.447-0.071-0.641,0c-4.674,1.718-9.556,2.201-14.476,2.345c-4.399,0.129-8.804,0.123-13.206,0.136
			c-0.859,0.002-9.551-0.851-14.846-1.361c4.896,21.826,24.376,38.139,47.678,38.139c23.034,0,42.334-15.939,47.503-37.386
			C86.959,60.04,73.232,59.582,69.588,59.49z"/>
		<path d="M60.062,38.107c0.72-2.602,0.541-5.817-0.867-8.186c-2.01-3.38-4.566-6.339-8.152-7.958
			c-2.168-0.979-11.062-3.373-17.355,3.55c-2.588,2.68-4.037,5.838-3.523,9.627c0.459,3.383,1.888,6.457,3.752,9.259
			c2.802,4.208,6.563,7.523,10.528,10.61c0.362,0.283,0.636,0.233,0.997,0.029c2.654-1.502,5.103-3.285,7.287-5.41
			C56.077,46.369,58.794,42.69,60.062,38.107z"/>
	</g>
</g>
</svg>