<svg xmlns="http://www.w3.org/2000/svg" class="svg-icon" style="width: 1em; height: 1em;vertical-align: middle;fill: currentColor;overflow: hidden;" version="1.1" viewBox="85.33 85.33 853.33 832.66"><path d="M512 85.333333C276.48 85.333333 85.333333 276.48 85.333333 512 85.333333 700.586667 207.786667 860.586667 377.173333 917.333333 398.506667 920.746667 405.333333 907.52 405.333333 896 405.333333 886.186667 405.333333 859.306667 405.333333 823.893333 287.146667 849.493333 261.973333 766.72 261.973333 766.72 242.346667 717.226667 214.613333 704 214.613333 704 175.786667 677.546667 217.6 678.4 217.6 678.4 260.266667 681.386667 282.88 722.346667 282.88 722.346667 320 787.2 382.72 768 407.04 757.76 410.88 730.026667 421.973333 711.253333 433.92 700.586667 339.2 689.92 239.786667 653.226667 239.786667 490.666667 239.786667 443.306667 256 405.333333 283.733333 375.04 279.466667 364.373333 264.533333 320 288 262.4 288 262.4 323.84 250.88 405.333333 305.92 439.04 296.533333 475.733333 291.84 512 291.84 548.266667 291.84 584.96 296.533333 618.666667 305.92 700.16 250.88 736 262.4 736 262.4 759.466667 320 744.533333 364.373333 740.266667 375.04 768 405.333333 784.213333 443.306667 784.213333 490.666667 784.213333 653.653333 684.373333 689.493333 589.226667 700.16 604.586667 713.386667 618.666667 739.413333 618.666667 779.093333 618.666667 836.266667 618.666667 882.346667 618.666667 896 618.666667 907.52 625.493333 921.173333 647.253333 917.333333 816.64 860.16 938.666667 700.586667 938.666667 512 938.666667 276.48 747.52 85.333333 512 85.333333Z"/></svg>